<svg xmlns="http://www.w3.org/2000/svg" version="1.1" viewBox="0 0 3000 3000" width="3000" height="3000">
<!--ITEM 1--><g><defs><clipPath id="clip-path-id-viewbox-item-1"><rect x="0.0" y="0.0" width="1223.364" height="941.127"/></clipPath></defs><g transform="translate(384.0 534.0) rotate(0.0 663.0 510.0) scale(1.0838965344737952 1.0838069676037347)"><g clip-path="url(#clip-path-id-viewbox-item-1)" transform="translate(-0.0 -0.0)"><defs>
    
    <clipPath id="clip-path-i1">
      <path d="M876.5,262.375a66.971,66.971,0,0,1-34.19,58.43c-22.12-21.17-28.24-42.07-27.05-60.13-30.86,26.36-70.77,17.94-70.77,17.94l-.01-.03a67,67,0,1,1,132.02-16.21Z" style="         fill: none;       "/>
    </clipPath>
  </defs>
  <g id="delivery_girl-i1" data-name="delivery girl">
    <g id="_3-2-i1" data-name="3">
      <g>
        <path d="M703.517,417.888c-1.587-1.17-38.905-29.62-43.014-114.893-2.318-48.1,19.308-96.705,55.094-123.832,25.442-19.285,54.631-24.846,82.194-15.66,29.108,9.7,37.783,29.976,39.935,45.274a75.275,75.275,0,0,1-2.35,30.875l-4.753-1.552v0h0a71.458,71.458,0,0,0,2.127-28.789c-2.889-20.127-15.183-33.943-36.542-41.062-25.946-8.65-53.5-3.358-77.592,14.9-34.51,26.159-55.361,73.107-53.12,119.607,2.084,43.233,13.131,71.152,22.031,86.961,9.621,17.089,18.868,24.081,18.959,24.15Z" style="         fill: #21a0aa;       "/>
        <path d="M779.619,924.1c-33.755,0-65.171-5.533-93.643-16.513a225.9,225.9,0,0,1-81.09-53.744c-59.116-60.761-80.512-146.891-75.375-201.2,7.1-75.028-18.161-110.656-42.588-145.11-23.4-33.01-45.508-64.189-36.4-126.019,6.629-44.979,4.929-78.577-5.349-105.738-6.246-16.508-16.61-35.934-49.856-66.045l3.358-3.705c34.03,30.821,44.706,50.887,51.175,67.979,10.591,27.99,12.376,62.383,5.62,108.237-8.82,59.846,12.721,90.231,35.528,122.4,24.954,35.2,50.759,71.6,43.487,148.471-2.626,27.756,2.217,62.633,13.285,95.688,13.085,39.078,34.074,74.2,60.7,101.558a220.948,220.948,0,0,0,79.3,52.567c33.762,13.02,71.8,18.223,113.059,15.458l.334,4.988Q790.246,924.1,779.619,924.1Z" style="         fill: #21a0aa;       "/>
        <path d="M336.684,256.336c98.55,4.16,171.6-86.49,150.032-180.6-12.547-54.749-74.431-100.063-123.58-61.161-19.914,15.763-23.455,49.373-41.7,63.9-29.289,23.325-64.04,1.939-92.945,30.25-13.433,13.157-20.471,36.774-16.45,55.142C227,232.215,298.024,254.7,336.684,256.336Z" style="         fill: #f94f46;       "/>
        <path d="M876.5,262.375a67,67,0,0,1-132.01,16.24l-.01-.03a67,67,0,1,1,132.02-16.21Z" style="         fill: #fc6151;       "/>
        <path d="M1221.029,172.262a1.884,1.884,0,0,0-3.681-.363c-10.376,35.217-54.6,154.39-190.848,214.476-87.192,38.451-169,29-202,98-24.138,50.471,30,71,1,170-28.06,95.79-96.8,177.238-24.4,266.111a1.888,1.888,0,0,0,3.294-.705c5.319-20.34,35.668-122.689,124.107-195.406,90-74,6.49-176.538,148-259C1211.391,386.769,1231.388,285.561,1221.029,172.262Z" style="         fill: #21a0aa;       "/>
        <path d="M606.969,30.236a1.306,1.306,0,0,1,2.179-1.294c16.344,16.632,81.016,89.779,57.352,184.433-37.839,151.358,63.334,205.19,108.5,308.5,43.5,99.5-26.222,189.406-31.5,276.5-4,66,61.29,124,61.29,124s-150.29-20-184.29-141c-24.984-88.914,12.637-137.264,1-242-9.724-87.513-65.97-119-65-217C557.489,222.439,651.488,181.246,606.969,30.236Z" style="         fill: #21a0aa;       "/>
        <path d="M2.3,452.542a1.646,1.646,0,0,1,.993-3.015c23.77,1.2,116.065,11.482,191.2,97.848,93.918,107.951,276.541-11.215,334,146,72,197,133,203,277,229,0,0-260.784,79.221-384-88-56-76-80.678-128.511-217-166C125.321,646.6,154.876,554.3,2.3,452.542Z" style="         fill: #21a0aa;       "/>
        <path d="M805,924.376a2.475,2.475,0,0,1-1.006-.213c-15.756-6.932-45.084-19.837-70.657-41.182-29.2-24.369-47.131-54.371-53.3-89.169-9.286-52.4-1.836-87.567,6.053-124.793,5.554-26.209,11.3-53.31,11.909-88.687.857-49.428-21.308-85.366-44.773-123.415-18.355-29.76-37.334-60.533-44.681-98.567-12.583-65.133.173-98.506,13.678-133.839,4.994-13.066,10.158-26.577,14.361-42.282,18.5-69.126-29.732-149.75-30.222-150.556a2.5,2.5,0,0,1,4.274-2.6,285.015,285.015,0,0,1,22.6,50.114c9.237,27.016,18.153,67.046,8.175,104.331-4.269,15.955-9.481,29.589-14.52,42.774-13.819,36.152-25.752,67.374-13.441,131.1,7.175,37.137,25.91,67.515,44.028,96.892,22.812,36.987,46.4,75.234,45.518,126.126-.622,35.857-6.415,63.2-12.018,89.638-7.785,36.737-15.137,71.436-6.02,122.883,5.955,33.607,23.309,62.611,51.577,86.205,25.031,20.89,53.939,33.61,69.468,40.443A2.5,2.5,0,0,1,805,924.376Z" style="         fill: #6ce0dc;       "/>
        <path d="M876.5,262.375a66.971,66.971,0,0,1-34.19,58.43c-22.12-21.17-28.24-42.07-27.05-60.13-30.86,26.36-70.77,17.94-70.77,17.94l-.01-.03a67,67,0,1,1,132.02-16.21Z" style="         fill: #21a0aa;       "/>
        <g style="         clip-path: url(#clip-path-i1);       ">
          <path d="M762.186,286.5c-8.61,0-15.517-1.24-18.8-2.884l2.236-4.472c5.608,2.8,37.967,6.131,61.589-10.651,19.684-13.985,27.527-37.634,23.314-70.293l4.958-.64c4.469,34.634-4.069,59.871-25.376,75.01C795.26,283.11,776.4,286.5,762.186,286.5Z" style="         fill: #6ce0dc;       "/>
        </g>
        <path d="M385.55,106a92.548,92.548,0,0,1-33.04,25.58c-13.7,6.48-28.6,8.78-42.88,8.77a21.74,21.74,0,0,1-1.77-3.82c-5.63-15.96,7.46-35.12,29.24-42.8C357.59,86.5,378.48,92.015,385.55,106Z" style="         fill: #ffcf2d;       "/>
        <path d="M309.729,142.845h-.1c-35.729-.04-67.121-14.075-68.44-14.673a2.5,2.5,0,1,1,2.063-4.555c.313.142,31.765,14.189,66.382,14.228h.1c15.711,0,29.744-2.869,41.711-8.53a90.5,90.5,0,0,0,32.164-24.89c14.26-17.641,21.7-41.016,22.126-69.477a2.5,2.5,0,1,1,5,.075c-.44,29.606-8.257,54.014-23.236,72.543a95.485,95.485,0,0,1-33.915,26.269C340.938,139.814,326.185,142.845,309.729,142.845Z" style="         fill: #fcb6b1;       "/>
        <path d="M804.787,920.785a2.5,2.5,0,0,1-2.443-1.983c-19.692-93.116,13.13-140.844,44.871-187,13.672-19.881,26.586-38.66,35.464-60.856,11.82-29.549,9.34-51.242,6.94-72.219-3.177-27.781-6.462-56.506,23.285-102.215,21.755-33.429,55.876-47.541,95.385-63.881C1044.134,417.806,1084.761,401,1124.344,366a275.342,275.342,0,0,0,81.329-127.653c11.175-37.48,10.832-65.155,10.827-65.43a2.5,2.5,0,0,1,2.456-2.543H1219a2.5,2.5,0,0,1,2.5,2.455c.021,1.149.376,28.576-10.979,66.758a280.34,280.34,0,0,1-82.865,130.16c-40.211,35.555-81.249,52.527-117.457,67.5C971.461,453.273,938,467.11,917.1,499.238c-28.767,44.2-25.727,70.781-22.509,98.92,2.47,21.6,5.022,43.924-7.266,74.646-9.085,22.713-22.76,42.6-35.986,61.831-31.144,45.287-63.347,92.115-44.1,183.132a2.5,2.5,0,0,1-1.928,2.964A2.583,2.583,0,0,1,804.787,920.785Z" style="         fill: #6ce0dc;       "/>
        <path d="M746.426,927.573c-7.385,0-15.258-.155-23.491-.536-42.014-1.939-102.18-10.283-150.218-39.016-44.734-26.756-63.685-65.366-82.012-102.7-26.469-53.922-51.469-104.856-149.137-121.98-131.656-23.082-159.662-61.645-189.311-102.471-5.105-7.028-10.382-14.3-16.194-21.409C79.288,469.955,2.776,453.98,2.01,453.826a2.5,2.5,0,1,1,.98-4.9c.8.16,19.989,4.083,46.59,16.821,24.522,11.743,60.1,33.515,90.357,70.548,5.9,7.224,11.22,14.55,16.366,21.635,29.038,39.984,56.466,77.752,186.129,100.484,44.924,7.877,78.966,23.852,104.071,48.838,22.392,22.287,35.762,49.524,48.69,75.864C513.2,819.8,531.82,857.732,575.283,883.73c47.118,28.182,106.371,36.387,147.781,38.308,45,2.089,79.25-2.592,79.59-2.639a2.5,2.5,0,0,1,.692,4.952C803.063,924.391,779.791,927.573,746.426,927.573Z" style="         fill: #6ce0dc;       "/>
      </g>
    </g>
  </g>
</g></g></g><!--ITEM 2--><g><defs><clipPath id="clip-path-id-viewbox-item-2"><rect x="0.0" y="0.0" width="286.778" height="180.22"/></clipPath></defs><g transform="translate(1164.0 1610.0) rotate(0.0 173.0 109.0) scale(1.2065081700827818 1.2096326711796692)"><g clip-path="url(#clip-path-id-viewbox-item-2)" transform="translate(-0.0 -0.0)"><g id="delivery_girl-i2" data-name="delivery girl">
    <g id="_5-2-i2" data-name="5">
      <path d="M73.556,39.786c-5.611-15.57-8.425-26.548-8.425-26.548C59.677-4.183,29.637-5.171,13.637,14.829c-33.156,41.445-2,133,52,162l221.141,3.391C158.637,172.829,96.637,103.829,73.556,39.786Z" style="         fill: #5b2448;       "/>
    </g>
  </g>
</g></g></g><!--ITEM 3--><g><defs><clipPath id="clip-path-id-viewbox-item-3"><rect x="0.0" y="0.0" width="251.0" height="279.393"/></clipPath></defs><g transform="translate(980.0 1532.0) rotate(0.0 131.0 146.0) scale(1.043824701195219 1.0451228198272684)"><g clip-path="url(#clip-path-id-viewbox-item-3)" transform="translate(-0.0 -0.0)"><g id="delivery_girl-i3" data-name="delivery girl">
    <g id="_2-2-i3" data-name="2">
      <g>
        <rect x="2" y="1.393" width="249" height="278" style="         fill: #ffcf2d;       "/>
        <path d="M251,0V279.393H1C233.77,270.038,251,0,251,0Z" style="         fill: #ffbd11;       "/>
        <path d="M109.008,182.62a2.491,2.491,0,0,0,1.968-4.019L96.417,159.855,80.7,139.624a2.49,2.49,0,0,0-3.934,0L61.057,159.855,46.5,178.6a2.491,2.491,0,0,0,1.968,4.019h10.3a2.491,2.491,0,0,1,2.491,2.491v48.417a2.491,2.491,0,0,0,2.491,2.491h29.98a2.491,2.491,0,0,0,2.491-2.491V185.111a2.491,2.491,0,0,1,2.491-2.491Z" style="         fill: #5b2448;       "/>
        <rect y="1.393" width="6" height="278" style="         fill: #fff;       "/>
      </g>
    </g>
  </g>
</g></g></g><!--ITEM 4--><g><defs><clipPath id="clip-path-id-viewbox-item-4"><rect x="0.0" y="0.0" width="2099.599" height="1250.5"/></clipPath></defs><g transform="translate(418.0 1186.0) rotate(0.0 1127.0 671.0) scale(1.0735383280331148 1.0731707317073171)"><g clip-path="url(#clip-path-id-viewbox-item-4)" transform="translate(-0.0 -0.0)"><defs>
    
    <clipPath id="clip-path-i4">
      <path d="M2088.85,927.66A16.6,16.6,0,0,1,2084,929c-54.72,6.84-107-32-224.5-1.5-71.65,18.6-130.73,58.32-175.34,97.06-12.24,10.63-23.39,21.19-33.41,31.24l-.11.11c-1.13,1.14-2.25,2.28-3.35,3.4q-3.15,3.2-6.12,6.3-2.13,2.22-4.17,4.39c-99,105-194.57,108.33-266.5,109.5-111.36,1.81-405.97-8.85-506.68-12.67a51.508,51.508,0,0,1-45.51-31.58C801.29,1094.75,763.62,1022.7,697,977c-156-107-292.5-54.5-357.5-42.5-27.18,5.02-41.68-14.53-41.89-47.02-.12-16.07,3.27-35.31,10.36-56.32C320.79,793.1,345.75,749.25,384,708c91.37-98.54,205.64-112.5,287-114,121.86-2.24,422.57,5.02,566.6,8.82,28.56.76,41.92,35.64,21.22,55.33C1058.33,848.82,996.9,991.9,978.16,1058.19a32.082,32.082,0,0,0,30.87,40.81H1344c127-10,229.71-166.27,313-348,185.48-404.67,86.98-634.98,75.38-663.2A603.855,603.855,0,0,0,1706,32c9.58-7.05,37-16,59-14,10,13,29.41,56.27,32,63,13.92,36.21,27.02,74.06,36.13,111.77a909.383,909.383,0,0,1,25.3,230.78c-1.55,81.48-12.64,163.6-31.49,242.86-2.67,11.27-5.54,22.5-8.51,33.69-.34,1.28-.68,2.54-1.02,3.81a.254.254,0,0,1-.02.07,2.875,2.875,0,0,0-.09.4c.07,0,.27.01.6.01.11,0,.24.01.39.01.85.03,2.24.09,4.1.2,24.18,1.37,125.39,15.39,202.11,78.9C2095.84,842.56,2114.06,916.34,2088.85,927.66Z" style="         fill: none;       "/>
    </clipPath>
  </defs>
  <g id="delivery_girl-i4" data-name="delivery girl">
    <g id="_1-2-i4" data-name="1">
      <g>
        <circle cx="587" cy="1038" r="212.5" style="         fill: #5b2448;       "/>
        <circle cx="1852" cy="1038" r="212.5" style="         fill: #5b2448;       "/>
        <g>
          <circle cx="587" cy="1038" r="39.5" style="         fill: #fff;       "/>
          <path d="M587,998.5a39.5,39.5,0,1,1-39.5,39.5A39.5,39.5,0,0,1,587,998.5m0-8a47.5,47.5,0,1,0,47.5,47.5A47.554,47.554,0,0,0,587,990.5Z" style="         fill: #ffcf2d;       "/>
        </g>
        <g>
          <circle cx="1852" cy="1038" r="39.5" style="         fill: #fff;       "/>
          <path d="M1852,998.5a39.5,39.5,0,1,1-39.5,39.5,39.5,39.5,0,0,1,39.5-39.5m0-8a47.5,47.5,0,1,0,47.5,47.5,47.554,47.554,0,0,0-47.5-47.5Z" style="         fill: #ffcf2d;       "/>
        </g>
        <path d="M720,624H15a15,15,0,0,1,0-30H720a15,15,0,0,1,0,30Z" style="         fill: #5b2448;       "/>
        <rect x="320" y="558.686" width="30" height="299.628" transform="translate(-417.162 488.389) rotate(-48.382)" style="         fill: #5b2448;       "/>
        <path d="M2088.85,927.66A16.6,16.6,0,0,1,2084,929c-54.72,6.84-107-32-224.5-1.5-71.65,18.6-130.73,58.32-175.34,97.06-12.24,10.63-23.39,21.19-33.41,31.24l-.11.11c-1.13,1.14-2.25,2.28-3.35,3.4q-3.15,3.2-6.12,6.3-2.13,2.22-4.17,4.39c-99,105-194.57,108.33-266.5,109.5-111.36,1.81-405.97-8.85-506.68-12.67a51.508,51.508,0,0,1-45.51-31.58C801.29,1094.75,763.62,1022.7,697,977c-156-107-292.5-54.5-357.5-42.5-27.18,5.02-41.68-14.53-41.89-47.02-.12-16.07,3.27-35.31,10.36-56.32C320.79,793.1,345.75,749.25,384,708c91.37-98.54,205.64-112.5,287-114,121.86-2.24,422.57,5.02,566.6,8.82,28.56.76,41.92,35.64,21.22,55.33C1058.33,848.82,996.9,991.9,978.16,1058.19a32.082,32.082,0,0,0,30.87,40.81H1344c127-10,229.71-166.27,313-348,185.48-404.67,86.98-634.98,75.38-663.2A603.855,603.855,0,0,0,1706,32c9.58-7.05,37-16,59-14,10,13,29.41,56.27,32,63,13.92,36.21,27.02,74.06,36.13,111.77a909.383,909.383,0,0,1,25.3,230.78c-1.55,81.48-12.64,163.6-31.49,242.86-2.67,11.27-5.54,22.5-8.51,33.69-.34,1.28-.68,2.54-1.02,3.81a.254.254,0,0,1-.02.07,2.875,2.875,0,0,0-.09.4c.07,0,.27.01.6.01.11,0,.24.01.39.01.85.03,2.24.09,4.1.2,24.18,1.37,125.39,15.39,202.11,78.9C2095.84,842.56,2114.06,916.34,2088.85,927.66Z" style="         fill: #cf878a;       "/>
        <path d="M2088.85,927.66A16.6,16.6,0,0,1,2084,929c-54.72,6.84-107-32-224.5-1.5-71.65,18.6-130.73,58.32-175.34,97.06-12.24,10.63-23.39,21.19-33.41,31.24l-.11.11c-1.13,1.14-2.25,2.28-3.35,3.4q-3.15,3.2-6.12,6.3-2.13,2.22-4.17,4.39c-99,105-194.57,108.33-266.5,109.5-111.36,1.81-405.97-8.85-506.68-12.67a51.508,51.508,0,0,1-45.51-31.58C801.29,1094.75,763.62,1022.7,697,977c-156-107-292.5-54.5-357.5-42.5-27.18,5.02-41.68-14.53-41.89-47.02-.12-16.07,3.27-35.31,10.36-56.32C320.79,793.1,345.75,749.25,384,708c91.37-98.54,205.64-112.5,287-114,121.86-2.24,422.57,5.02,566.6,8.82,28.56.76,41.92,35.64,21.22,55.33C1058.33,848.82,996.9,991.9,978.16,1058.19a32.082,32.082,0,0,0,30.87,40.81l329.97-4c127-10,234.71-162.27,318-344,185.48-404.67,86.98-634.98,75.38-663.2A603.855,603.855,0,0,0,1706,32c9.58-7.05,37-16,59-14,10,13,29.41,56.27,32,63,13.92,36.21,27.02,74.06,36.13,111.77a909.383,909.383,0,0,1,25.3,230.78c-1.55,81.48-12.64,163.6-31.49,242.86-2.67,11.27-5.54,22.5-8.51,33.69-.34,1.28-.68,2.54-1.02,3.81a.254.254,0,0,1-.02.07,2.875,2.875,0,0,0-.09.4c.07,0,.27.01.6.01.11,0,.24.01.39.01.85.03,2.24.09,4.1.2,24.18,1.37,125.39,15.39,202.11,78.9C2095.84,842.56,2114.06,916.34,2088.85,927.66Z" style="         fill: #f94f46;       "/>
        <path d="M1324,1099a7,7,0,0,1-.05-14c64.538-.468,124.019-32.009,181.842-96.426,52.564-58.558,105.505-146.711,161.847-269.494,42.017-91.564,71.409-181.717,87.36-267.952,12.937-69.941,17.148-137.741,12.516-201.515-7.022-96.67-32.271-159.375-46.7-188.148-1.46-2.911-3.276-6.535-.041-10.14a7.01,7.01,0,0,1,11.886,2.525c.159.325.385.771.671,1.34,25.712,51.287,42.81,119.973,48.144,193.409,4.719,64.963.442,133.961-12.712,205.076-16.161,87.37-45.9,178.63-88.4,271.244C1623.424,849,1569.729,938.3,1516.209,997.926c-60.6,67.514-123.459,100.576-192.158,101.074Z" style="         fill: #5b2448;       "/>
        <path d="M1925.721,335.289c-.238,4.279-3.666,7.4-7.172,6.443-45.6-12.4-78-62.215-74.881-119.844,3.138-57.982,41.17-104.224,88.24-111.194,3.325-.493,6.159,2.716,5.938,6.677Z" style="         fill: #f94f46;       "/>
        <path d="M1946.008,346c-.17,0-.34,0-.512-.013a10,10,0,0,1-9.483-10.491l11-218a10,10,0,0,1,19.974,1.008l-11,218A10,10,0,0,1,1946.008,346Z" style="         fill: #ffcf2d;       "/>
        <path d="M880.5,1093.5c-.084,0-.17,0-.255-.011a3,3,0,0,1-2.737-3.241c6.758-80.055,41.639-160.233,69.711-213.4,30.384-57.543,59.585-96.758,59.876-97.148a3,3,0,0,1,4.8,3.6c-.289.386-29.256,39.3-59.424,96.447-27.791,52.649-62.319,131.993-68.989,211.007A3,3,0,0,1,880.5,1093.5Z" style="         fill: #fcb6b1;       "/>
        <circle cx="1735.5" cy="33.5" r="33.5" style="         fill: #0a293b;       "/>
        <g style="         clip-path: url(#clip-path-i4);       ">
          <path d="M1643.78,1069.69a3,3,0,0,1-2.1-5.142c66.616-65.317,110.887-159.877,136.3-227.7,27.561-73.572,39.465-132.35,39.582-132.935a3,3,0,0,1,5.884,1.176c-.118.591-12.119,59.844-39.848,133.863-25.621,68.394-70.312,163.794-137.714,229.882A2.991,2.991,0,0,1,1643.78,1069.69Z" style="         fill: #fcb6b1;       "/>
          <path d="M302,927a3,3,0,0,1-2.982-2.705c-4.372-44.2,12.224-93.34,46.729-138.369A313.9,313.9,0,0,1,477.9,686.209c115.071-45.363,207.345-25.974,264.491-1.719,71.864,30.5,119.554,80.455,140.221,117.034a3,3,0,1,1-5.224,2.952c-20.182-35.72-66.861-84.548-137.342-114.462C683.932,666.2,593.283,647.17,480.1,691.791a307.827,307.827,0,0,0-129.594,97.784c-33.575,43.817-49.742,91.451-45.521,134.13a3,3,0,0,1-2.69,3.28C302.2,927,302.1,927,302,927Z" style="         fill: #fcb6b1;       "/>
        </g>
        <circle cx="1735.5" cy="33.5" r="33.5" style="         fill: #5b2448;       "/>
      </g>
    </g>
  </g>
</g></g></g><!--ITEM 5--><g><defs><clipPath id="clip-path-id-viewbox-item-5"><rect x="0.0" y="0.0" width="1107.111" height="1859.176"/></clipPath></defs><g transform="translate(1184.0 368.0) rotate(0.0 596.0 1001.0) scale(1.0766761417780149 1.0768211293605339)"><g clip-path="url(#clip-path-id-viewbox-item-5)" transform="translate(-0.0 -0.0)"><defs>
    
    <clipPath id="clip-path-i5">
      <path d="M571.694,1664.848l-42.12,22.62a374.919,374.919,0,0,1,47.42,19.789q2.31,1.157,4.56,2.341,5.58,2.924,10.83,5.909l-191.1,49.781-76.47-86.59c12.49-20.691,25.84-40.81,39.26-59.83.22-.31.43-.611.64-.91s.41-.581.61-.871c.69-.98,1.47-2.059,2.31-3.23.33-.46.68-.94,1.03-1.429,5.29-7.33,12.79-17.49,19.84-26.97.11-.15.22-.291.33-.43q1.47-1.95,2.94-3.87,6.705-8.791,13.22-17.06l.1-.13c14.93,8.61,123.92,57.15,191.94,87.27l-.42.23Z" style="         fill: none;       "/>
    </clipPath>
    <clipPath id="clip-path-2-i5">
      <path d="M529.571,1687.472,658.4,1618.288l-178.612-141.5s-16.07,16.75-39.59,44.36c-4.28,5.02-8.81,10.41-13.54,16.12,0,0-.48.58-1.17,1.42-1.09,1.33-2.7,3.29-3.71,4.52-17.71,21.64-37.79,47.44-57.7,75.66-14.3,20.26-28.52,41.78-41.7,63.9-33.98,56.97-61.17,117.96-65.59,172.02h321c66,0,103-20,116-37,0,0-.02-.05-.06-.161-.03-.079-.08-.189-.13-.339a.01.01,0,0,0-.01-.01c-2.51-5.98-28.54-64.07-112.03-107.68q-2.25-1.185-4.56-2.34a374.364,374.364,0,0,0-47.423-19.786" style="         fill: none;       "/>
    </clipPath>
    <clipPath id="clip-path-3-i5">
      <path d="M1041.924,1197.2c-20.1,232.219-383.53,421.09-383.53,421.09s-103.61,8.5-179.61-86.5c-76.687-95.859-160.97-95.55-171.75-52.721,18.41-72.429,141.64-121.439,143.75-122.279-271.98,39.98-357-92-357-92l89-263,389,4C818.784,949.788,1061.784,967.788,1041.924,1197.2Z" style="         fill: none;       "/>
    </clipPath>
    <clipPath id="clip-path-4-i5">
      <path d="M742.784,41.788c-11.2-7.008-29.017-10.355-46-3-12-52-80-48-92-10-44-39-105,9-89,53,5.873,16.152,15,44,6,70,22,12,60.5,76.5,60.5,76.5s85.8-101.864,126.5-102.5C772.784,124.788,772.315,60.271,742.784,41.788Z" style="         fill: none;       "/>
    </clipPath>
    <clipPath id="clip-path-5-i5">
      <path d="M757.784,281.788c.43,14.14-7.99,28.03-23,36-33.8,17.95-91.73,4.5-91.73,4.5s-63.27,57.5-70.27,114.5c0,0-68.67-13.43-156-94,0,0,73-44,100-91-27-5-56-34-47.5-70.5,4.85-20.82,28-34,49.5-29.5,22.08,4.62,35.84,23.609,52,43,18.27,21.92,24.94,4.72,33.75-16.94,5.66-13.91,12.19-29.66,23.25-38.06,25-19,81-14,81-14s-.09,7.32.44,16.54c.7,12.19,2.51,27.69,7.06,33.96,8,11,16.5,9.5,16.5,16.5,0,6-7,13-11,16C722.784,249.788,756.784,248.788,757.784,281.788Z" style="         fill: none;       "/>
    </clipPath>
    <clipPath id="clip-path-6-i5">
      <path d="M416.784,342.788c-61,25-205,74-320,265-103.612,172.086-151,481-3,657,0,0,42.979-74.123,186.213-144.847-14.213-17.153-42.213-60.153-45.213-111.153-.227-3.85,111.133,82.153,114.657,80.756,183.487-72.727,290.343-97.756,290.343-97.756s25-279-67-555C572.784,436.788,461.95,348.556,416.784,342.788Z" style="         fill: none;       "/>
    </clipPath>
    <clipPath id="clip-path-7-i5">
      <path d="M1082.284,841.288c-39,43.43-90.5,40.5-87.5,22.5-14.59.469-37.01-14.871-16-28,24-15,61-24,62-56,.563-18.019-35-36-50-1-25.174,58.739-410.5,348.5-626.71,316.109-142.51-21.35-172.44-169.27-176.29-267.619-.29-7.381-.43-14.47-.46-21.21q-.015-3.33,0-6.54c.2-36.23,3.46-60.74,3.46-60.74.67-.371,1.35-.74,2.02-1.1,141.95-77.36,280.24-58.67,327.88-19.98.03.03.07.05.1.08-.12.6-.25,1.21-.38,1.83-8.93,42.56-31.27,121.029-31.61,122.27,205.5-111.38,434.36-176.5,539.99-159.1C1113.784,696.788,1126.284,792.288,1082.284,841.288Z" style="         fill: none;       "/>
    </clipPath>
    <clipPath id="clip-path-8-i5">
      <path d="M89.784,811.788c21-81,62-198,146.5-316.5,94.035-131.873,258.171-173.272,295.5,39.5,10,57-1,126-11,183C434.784,684.788,124.784,736.788,89.784,811.788Z" style="         fill: none;       "/>
    </clipPath>
  </defs>
  <g id="_1-i5" data-name="1">
    <g>
      <path d="M658.394,1618.288c-92.61-.4-161.46-7.7-212.46-18.931-142.51-31.339-145.71-93.25-138.9-120.29,10.78-42.829,85.58-47.639,169.75,41.721C546.934,1595.258,658.394,1618.288,658.394,1618.288Z" style="         fill: #5b2448;       "/>
      <path d="M693.784,1817.788c-13,17-50,37-116,37h-321c4.42-54.06,31.61-115.05,65.59-172.02.81-1.36,1.62-2.721,2.44-4.07,12.49-20.691,25.84-40.81,39.26-59.83.22-.31.43-.611.64-.91s.41-.581.61-.871c.69-.98,1.47-2.059,2.31-3.23.34-.48.68-.96,1.03-1.429,6.63-9.31,13.29-18.3,19.84-26.97.11-.15.22-.291.33-.43q1.47-1.95,2.94-3.87,6.705-8.791,13.22-17.06l.1-.13c5.74-7.27,11.32-14.211,16.68-20.76,1.01-1.23,2.62-3.19,3.71-4.52.04-.05.07-.09.1-.13.64-.77,1.07-1.29,1.07-1.29,4.73-5.71,9.26-11.1,13.54-16.121,23.52-27.609,39.59-44.359,39.59-44.359l178.61,141.5-7.02,3.77-54.34,29.18-.42.23-24.92,13.38-42.12,22.62a374.919,374.919,0,0,1,47.42,19.789q2.31,1.157,4.56,2.341,5.58,2.924,10.83,5.909c74.93,42.781,98.8,96.06,101.2,101.771a.01.01,0,0,1,.01.01c.05.15.1.259.13.339C693.764,1817.738,693.784,1817.788,693.784,1817.788Z" style="         fill: #f4ada2;       "/>
      <path d="M658.394,1618.288l-7.02,3.77c-33.17,3.56-150.59,8.73-225.59-83.27a2.9,2.9,0,0,0-.2-.23c.64-.77,1.07-1.29,1.07-1.29,4.73-5.71,9.26-11.1,13.54-16.121,23.52-27.609,39.59-44.359,39.59-44.359Z" style="         fill: #9b3c82;       "/>
      <path d="M571.694,1664.848l-42.12,22.62a374.919,374.919,0,0,1,47.42,19.789q2.31,1.157,4.56,2.341,5.58,2.924,10.83,5.909l-191.1,49.781-76.47-86.59c12.49-20.691,25.84-40.81,39.26-59.83.22-.31.43-.611.64-.91s.41-.581.61-.871c.69-.98,1.47-2.059,2.31-3.23.33-.46.68-.94,1.03-1.429,5.29-7.33,12.79-17.49,19.84-26.97.11-.15.22-.291.33-.43q1.47-1.95,2.94-3.87,6.705-8.791,13.22-17.06l.1-.13c14.93,8.61,123.92,57.15,191.94,87.27l-.42.23Z" style="         fill: #66b0f0;       "/>
      <g style="         clip-path: url(#clip-path-i5);       ">
        <rect x="477.022" y="1525.439" width="10.001" height="213.559" transform="translate(-1203.64 1397.642) rotate(-65.625)" style="         fill: #fff;       "/>
      </g>
      <path d="M693.784,1817.788c-13,17-50,37-116,37h-321c1.84-22.56,7.65-46.32,16.27-70.5,0,0,25.89-20.241,56.73-16.5,33,4,38.11,24.65,64,33,31,10,42.5-10.5,80.5,5.5,44.059,18.549,133.488,47.5,209.918-6.419a127.608,127.608,0,0,1,9.382,17.409.01.01,0,0,1,.01.01c.05.15.1.259.13.339C693.764,1817.738,693.784,1817.788,693.784,1817.788Z" style="         fill: #fff;       "/>
      <g style="         clip-path: url(#clip-path-2-i5);       ">
        <path d="M684.2,1799.868c-76.43,53.92-165.86,24.969-209.92,6.42-38-16-49.5,4.5-80.5-5.5-25.89-8.35-31-29-64-33-30.84-3.741-56.73,16.5-56.73,16.5.31-.88.63-1.76.95-2.641.96-2.64,1.96-5.279,2.98-7.929.34-.89.69-1.77,1.04-2.651q2.925-7.424,6.17-14.869c.38-.87.75-1.73,1.14-2.591,1.22-2.779,2.49-5.579,3.78-8.369.42-.91.85-1.83,1.28-2.74q1.275-2.73,2.6-5.48c.44-.911.89-1.82,1.33-2.73.06-.141.13-.29.21-.44q1.23-2.522,2.5-5.04c.49-.971.98-1.951,1.47-2.92q2.025-3.99,4.11-7.95a.053.053,0,0,1,.03-.05c.95-1.821,1.92-3.631,2.89-5.45.49-.9.98-1.811,1.47-2.71s.98-1.811,1.48-2.721q5.205-9.494,10.72-18.889c.52-.9,1.04-1.79,1.58-2.68l1.59-2.67c.82-1.38,1.65-2.761,2.47-4.13l.01-.011q2.49-4.139,5.04-8.239c.85-1.37,1.7-2.741,2.55-4.1s1.71-2.71,2.56-4.06q2.58-4.065,5.19-8.09c.58-.91,1.16-1.81,1.75-2.7q7.035-10.772,14.21-21.2,1.185-1.726,2.37-3.441,2.775-4.005,5.55-7.929c23.67,6.15,16.83,33.96,46.71,44.92,19.36,7.1,49.95,4.17,90,15,1.45.39,2.88.779,4.31,1.17.4.109.79.209,1.18.32q12.705,3.54,24.35,7.559,2.325.8,4.61,1.611c2.2.79,4.36,1.58,6.5,2.389q2.52.947,4.98,1.92c1.36.531,2.7,1.071,4.04,1.62.83.331,1.66.67,2.48,1.011q2.97,1.245,5.87,2.5a.847.847,0,0,1,.13.05c.67.3,1.34.59,2.01.89,2.23.98,4.44,1.989,6.61,3,.47.219.95.45,1.42.67,2.62,1.24,5.2,2.49,7.72,3.759q3.675,1.847,7.21,3.741,1.35.7,2.67,1.44,4.035,2.188,7.87,4.439l1.8,1.051c.6.35,1.19.7,1.78,1.06,1.14.679,2.26,1.369,3.38,2.05,1.2.74,2.38,1.48,3.55,2.23.56.359,1.12.71,1.68,1.069q5.865,3.78,11.23,7.6c1.54,1.09,3.04,2.18,4.52,3.28.99.72,1.96,1.449,2.92,2.19.48.37.96.73,1.44,1.1,1.53,1.171,3.03,2.35,4.49,3.521.35.289.7.57,1.06.86q3.375,2.73,6.53,5.46c.42.37.84.73,1.25,1.09.8.689,1.59,1.39,2.37,2.09q.645.57,1.29,1.17c.79.719,1.58,1.44,2.35,2.15.38.36.77.719,1.15,1.08s.75.71,1.13,1.07.75.71,1.12,1.069q1.665,1.606,3.25,3.19l1.05,1.051c.34.35.69.71,1.03,1.049.69.7,1.37,1.4,2.02,2.091.33.349.66.7.99,1.04.66.7,1.3,1.38,1.92,2.059l1.86,2.04c.62.681,1.22,1.351,1.8,2.02.33.371.66.741.97,1.111,1.13,1.289,2.21,2.56,3.26,3.82v.009c.54.651,1.07,1.29,1.59,1.931s1.03,1.27,1.53,1.9.99,1.25,1.47,1.871c4.45,5.71,8.09,10.96,11.01,15.56C683.764,1799.167,683.984,1799.518,684.2,1799.868Z" style="         fill: #5b2448;       "/>
        <path d="M292.739,1742.673c-1.5,0-2.387-.082-2.557-.1a3,3,0,0,1,.609-5.97c.269.031,20.676,1.736,46.266-16.27,5.643-3.97,10.264-7.529,14.341-10.667,15.749-12.126,24.425-18.806,56-22.855a3,3,0,0,1,.763,5.951c-29.968,3.842-37.7,9.8-53.106,21.657-4.125,3.176-8.8,6.777-14.549,10.821C318.016,1741.071,299.365,1742.673,292.739,1742.673Z" style="         fill: #fff;       "/>
        <path d="M583.307,1833.372q-8.082,0-16.389-.625c-29.274-2.2-60.767-10.33-93.605-24.156-20.153-8.486-32.674-6.35-44.781-4.285-10.286,1.755-20.923,3.569-35.516-1.139-11.465-3.7-19.023-9.727-26.332-15.557-9.753-7.781-18.965-15.13-37.2-17.341-29.463-3.575-56.455,15.84-56.724,16.037a2.5,2.5,0,0,1-2.952-4.036c1.162-.851,28.82-20.79,60.277-16.964,19.644,2.381,29.849,10.522,39.718,18.395,7.278,5.806,14.153,11.29,24.749,14.708,13.428,4.332,23,2.7,33.14.968,12.814-2.186,26.064-4.447,47.563,4.607,32.338,13.614,63.3,21.614,92.039,23.777,43.8,3.294,82.641-6.776,115.47-29.936a2.5,2.5,0,1,1,2.752,4.176C655.908,1822.849,621.585,1833.371,583.307,1833.372Z" style="         fill: #5b2448;       "/>
      </g>
      <path d="M324.784,1839.288c-21.028,0-37.5-10.1-37.5-23s16.472-23,37.5-23,37.5,10.1,37.5,23S345.812,1839.288,324.784,1839.288Zm0-41c-17.617,0-32.5,8.243-32.5,18s14.883,18,32.5,18,32.5-8.244,32.5-18S342.4,1798.288,324.784,1798.288Z" style="         fill: #6d2a53;       "/>
      <path d="M445.182,1859.155c-93.933,0-186.875-1.836-188.449-1.868l.1-5c2.665.055,267.438,5.284,354.742-1.992,24.84-2.07,58.567-9.488,79.3-32.972-4.39-9.924-32.224-66.169-115.01-107.833-11.572-5.818-25.557-11.287-40.364-17.079q-3.565-1.4-7.138-2.8l1.831-4.653q3.563,1.4,7.129,2.794c14.918,5.835,29.008,11.347,40.789,17.269,86.957,43.764,114.582,103.765,117.715,111.149.021.044.042.088.061.133h0c.068.159.119.3.159.41l.056.151a2.519,2.519,0,0,1-.416,2.536c-21.746,25.7-57.519,33.694-83.7,35.876C576.11,1858.269,510.4,1859.155,445.182,1859.155Z" style="         fill: #5b2448;       "/>
      <path d="M459.776,1754.28a7.5,7.5,0,0,1-6.685-10.876c.983-1.945,24.725-47.775,80.986-60.92a7.5,7.5,0,0,1,3.413,14.607c-49.251,11.507-70.809,52.681-71.021,53.1A7.513,7.513,0,0,1,459.776,1754.28Z" style="         fill: #ffcf2d;       "/>
      <path d="M498.776,1769.28a7.5,7.5,0,0,1-6.679-10.889c.971-1.912,24.425-46.984,79.987-59.908a7.5,7.5,0,1,1,3.4,14.609c-48.556,11.294-69.811,51.7-70.02,52.108A7.514,7.514,0,0,1,498.776,1769.28Z" style="         fill: #ffcf2d;       "/>
      <path d="M543.775,1781.277a7.5,7.5,0,0,1-6.6-11.039c.888-1.654,22.344-40.637,73-51.776a7.5,7.5,0,0,1,3.222,14.651c-43.7,9.61-62.827,43.9-63.015,44.243A7.514,7.514,0,0,1,543.775,1781.277Z" style="         fill: #ffcf2d;       "/>
      <path d="M1041.924,1197.2c-20.1,232.219-383.53,421.09-383.53,421.09s-103.61,8.5-179.61-86.5c-76.69-95.86-160.97-95.55-171.75-52.721,18.41-72.429,141.64-121.44,143.75-122.279-271.98,39.98-357-92-357-92l89-263,310.92,3.2,78.08.8c76.41-17.32,152.43-27.57,220.41-26.65C943.974,981.158,1055.644,1038.757,1041.924,1197.2Z" style="         fill: #21a0aa;       "/>
      <g style="         clip-path: url(#clip-path-3-i5);       ">
        <path d="M431.781,1365.288a2.5,2.5,0,0,1-.364-4.973c131.842-19.57,239.771-64.875,307.095-99.435,72.975-37.46,115.3-70.721,115.72-71.052a2.5,2.5,0,1,1,3.1,3.92c-.421.334-43.04,33.837-116.409,71.513-67.685,34.757-176.2,80.32-308.775,100A2.465,2.465,0,0,1,431.781,1365.288Z" style="         fill: #6ce0dc;       "/>
      </g>
      <path d="M241.785,1047.553s23,42.235,75.339,55.238l32.317-13.247L198.784,965.788Z" style="         fill: #6d2a53;       "/>
      <path d="M416.784,342.788c-61,25-205,74-320,265-103.612,172.086-151,481-3,657,0,0,42.979-74.123,186.213-144.847-14.213-17.153-42.213-60.153-45.213-111.153-.227-3.85,111.133,82.153,114.657,80.756,183.487-72.727,290.343-97.756,290.343-97.756s25-279-67-555C572.784,436.788,461.95,348.556,416.784,342.788Z" style="         fill: #f94f46;       "/>
      <path d="M742.784,41.788c-11.2-7.008-29.017-10.355-46-3-12-52-80-48-92-10-44-39-105,9-89,53,5.873,16.152,15,44,6,70,22,12,60.5,76.5,60.5,76.5s85.8-101.864,126.5-102.5C772.784,124.788,772.315,60.271,742.784,41.788Z" style="         fill: #5b2448;       "/>
      <g style="         clip-path: url(#clip-path-4-i5);       ">
        <path d="M671.781,60.288a2.5,2.5,0,0,1-2.121-3.819c18.628-30.013,47.7-26.813,48.928-26.663a2.5,2.5,0,0,1-.605,4.963c-1.107-.127-27.182-2.878-44.075,24.337A2.5,2.5,0,0,1,671.781,60.288Z" style="         fill: #9b3c82;       "/>
      </g>
      <path d="M757.784,281.788c.43,14.14-7.99,28.03-23,36-33.8,17.95-91.73,4.5-91.73,4.5s-63.27,57.5-70.27,114.5c0,0-68.67-13.43-156-94,0,0,73-44,100-91-27-5-56-34-47.5-70.5,4.85-20.82,28-34,49.5-29.5,22.08,4.62,35.84,23.609,52,43,18.27,21.92,24.94,4.72,33.75-16.94,5.66-13.91,12.19-29.66,23.25-38.06,25-19,81-14,81-14s-.09,7.32.44,16.54c.7,12.19,2.51,27.69,7.06,33.96,8,11,16.5,9.5,16.5,16.5,0,6-7,13-11,16C722.784,249.788,756.784,248.788,757.784,281.788Z" style="         fill: #f4ada2;       "/>
      <g style="         clip-path: url(#clip-path-5-i5);       ">
        <path d="M532.55,258.025a98.034,98.034,0,0,1-21.873-2.312,2.5,2.5,0,0,1,1.212-4.851c.195.048,19.722,4.787,40.841-.012a2.5,2.5,0,1,1,1.108,4.875A96.472,96.472,0,0,1,532.55,258.025Z" style="         fill: #9b3c82;       "/>
        <path d="M643.054,322.288s-29.277-10.746-46.987-35.259c-6.9,3.632-15.036,44.433,20.717,63.759C654.158,370.99,643.054,322.288,643.054,322.288Z" style="         fill: #5b2448;       "/>
      </g>
      <g style="         clip-path: url(#clip-path-6-i5);       ">
        <path d="M560.017,560.206c-8.374,0-22.575-11.533-50.075-85.042a2.5,2.5,0,1,1,4.683-1.752c28.615,76.488,41.934,82.595,46.325,81.693,2.537-.529,8.748-5.074,11.622-35.777,1.91-20.394,1.984-48.717.215-81.908a2.5,2.5,0,0,1,2.363-2.628,2.469,2.469,0,0,1,2.63,2.363c1.782,33.429,1.7,62.006-.229,82.638-3.529,37.693-12.6,39.584-15.58,40.207A9.612,9.612,0,0,1,560.017,560.206Z" style="         fill: #fcb6b1;       "/>
        <path d="M449.282,402.789a2.489,2.489,0,0,1-1.158-.287c-23.723-12.425-46.479-29.243-69.572-51.411a2.5,2.5,0,0,1,3.463-3.607c22.747,21.838,45.131,38.385,68.429,50.589a2.5,2.5,0,0,1-1.162,4.716Z" style="         fill: #fcb6b1;       "/>
      </g>
      <path d="M520.784,715.788c-27.219-29.657-251.673-8.76-385,56-35,17-47,36-47,45,0,18.109,30.816,17.346,52,16C247.929,825.976,478.494,758.078,520.784,715.788Z" style="         fill: #6d2a53;       "/>
      <path d="M1082.284,841.288c-39,43.43-90.5,40.5-87.5,22.5-14.59.47-37.01-14.87-16-28,24-15,61-24,62-56,.559-18.02-35-36-50-1-25.17,58.74-410.5,348.5-626.71,316.11-142.51-21.35-172.44-169.27-176.29-267.62-.29-7.38-.43-14.47-.46-21.21q-.015-3.33,0-6.54c.2-36.23,3.46-60.74,3.46-60.74.67-.371,1.35-.74,2.02-1.1,141.949-77.36,280.239-58.67,327.88-19.98.029.03.069.05.1.08-.12.6-.25,1.21-.38,1.83-8.93,42.56-31.271,121.03-31.611,122.27,34.1-18.49,68.851-35.7,103.581-51.46v-.011c.419-.189.85-.379,1.27-.569,2-.9,3.989-1.81,5.989-2.7,39.141-17.549,78.181-33.259,116.16-46.889,1.9-.68,3.8-1.361,5.7-2.03q2.1-.75,4.19-1.47c.01,0,.01-.01.02-.01,20.27-7.12,40.23-13.63,59.7-19.5,53.86-16.22,104.09-27.54,147.53-33.17.51-.07,1.02-.13,1.52-.19.11-.01.219-.03.33-.04q3.285-.42,6.5-.79c15.82-1.81,30.67-2.84,44.41-3.04h.149q3.675-.045,7.241-.02,12.7.1,23.959,1.25c.241.02.481.05.71.08,2.481.26,4.911.55,7.271.89,1.269.17,2.519.37,3.76.57a112.791,112.791,0,0,1,13.809,3.16C1115.024,707.508,1123.784,795.078,1082.284,841.288Z" style="         fill: #f4ada2;       "/>
      <g style="         clip-path: url(#clip-path-7-i5);       ">
        <path d="M459.282,920.788a2.5,2.5,0,0,1-2.214-3.659c.229-.437,23.03-44.256,34.821-83.56a2.5,2.5,0,0,1,4.789,1.437c-11.93,39.768-34.948,84-35.179,84.44A2.5,2.5,0,0,1,459.282,920.788Z" style="         fill: #9b3c82;       "/>
        <path d="M992.306,869.813a2.538,2.538,0,0,1-2.413-1.8c-.215-.7-4.808-17.411,33.249-36.953,14.8-7.6,24.117-17.664,26.952-29.106,2.529-10.208-.5-19.436-3.858-24.237a2.5,2.5,0,0,1,4.1-2.867c3.961,5.659,7.547,16.469,4.615,28.307-4.033,16.279-18.28,26.578-29.521,32.35-33.783,17.349-30.77,30.967-30.735,31.1a2.491,2.491,0,0,1-2.385,3.2Z" style="         fill: #9b3c82;       "/>
      </g>
      <path d="M520.784,717.788c-.12.6-.25,1.21-.38,1.83-129.81-3.48-263.53,40.759-333.08,86.45q-.015-3.33,0-6.54c.1-36.22,2.46-60.74,2.46-60.74,1-.371,2.01-.73,3.02-1.1,116.37-41.791,263.43-44.55,327.88-19.98C520.714,717.738,520.754,717.758,520.784,717.788Z" style="         fill: #9b3c82;       "/>
      <path d="M89.784,811.788c21-81,62-198,146.5-316.5,94.035-131.873,258.171-173.272,295.5,39.5,10,57-1,126-11,183C434.784,684.788,124.784,736.788,89.784,811.788Z" style="         fill: #f94f46;       "/>
      <g style="         clip-path: url(#clip-path-8-i5);       ">
        <path d="M92.694,816.951l-4.821-1.326c33.181-120.66,83.1-228.251,148.375-319.789,26.865-37.674,58.983-67.849,92.883-87.26,35.171-20.14,69.825-27.143,100.218-20.254,36.434,8.258,83.775,40.384,102.4,146.534,10.567,60.23-4.113,143.909-12,188.863l-4.925-.863c7.834-44.653,22.415-127.77,12-187.137C508.674,432.278,463.2,401.121,428.243,393.2c-29.147-6.607-62.563.212-96.627,19.718-33.278,19.054-64.847,48.732-91.3,85.823C175.388,589.8,125.719,696.859,92.694,816.951Z" style="         fill: #fcb6b1;       "/>
      </g>
      <circle cx="587.284" cy="511.288" r="4.5" style="         fill: #fcb6b1;       "/>
      <path d="M639.367,161.49c-.074-.869-.119-1.448-.158-2.154-.028-.673-.034-1.336,0-1.993a29.839,29.839,0,0,1,.39-3.9,34.9,34.9,0,0,1,2.139-7.532,36.359,36.359,0,0,1,9.317-13.334,32.485,32.485,0,0,1,7.043-4.93,29.633,29.633,0,0,1,8.2-2.811,26.355,26.355,0,0,1,8.485-.2,21.03,21.03,0,0,1,7.837,2.608,5.611,5.611,0,0,1,.155,9.627l-.593.363c-3.98,2.443-7.066,4.076-9.746,5.9-2.67,1.776-5.033,3.43-7.5,5.405a88.853,88.853,0,0,0-7.515,6.929l-4.012,4.165c-.679.731-1.4,1.47-2.12,2.22-.357.377-.733.752-1.108,1.124a8.384,8.384,0,0,1-1.124,1.008l-2.523,1.368a4.862,4.862,0,0,1-6.591-1.957A4.969,4.969,0,0,1,639.367,161.49Z" style="         fill: #5b2448;       "/>
      <path d="M662.7,174.126c6.139-2.154,20.986-6.982,34.15-15.984a4.024,4.024,0,0,1,5.619,1.079c3.226,4.786,7.067,13.436-2.689,18.418-11.987,6.121-32.771,4.8-37.873-.1A2.068,2.068,0,0,1,662.7,174.126Z" style="         fill: #5b2448;       "/>
      <circle cx="628.784" cy="232.788" r="27" style="         fill: #e57281;         opacity: 0.52;       "/>
      <path d="M713.1,246.582a17.348,17.348,0,0,1-6.337,3.58,23.525,23.525,0,0,1-7.075,1.1,24.438,24.438,0,0,1-19.282-8.515,24.065,24.065,0,0,1-3.843-6.152,20.478,20.478,0,0,1-.959-14.147,2.239,2.239,0,0,1,4.371.778l0,.085a20.192,20.192,0,0,0,2.425,10.511,21.555,21.555,0,0,0,7.253,7.771,23.135,23.135,0,0,0,10.236,3.257,19.449,19.449,0,0,0,10.58-1.858l.081-.043a2.239,2.239,0,0,1,2.554,3.631Z" style="         fill: #9b3c82;       "/>
      <path d="M543.282,220.789a2.5,2.5,0,0,1-2.42-1.88c-3.957-15.431-12-26.2-23.923-32a39.434,39.434,0,0,0-16.58-4.124,2.5,2.5,0,0,1-.151-5c.343-.009,35.12-.593,45.5,39.878a2.5,2.5,0,0,1-1.8,3.042A2.536,2.536,0,0,1,543.282,220.789Z" style="         fill: #9b3c82;       "/>
    </g>
  </g>
</g></g></g><!--ITEM 6--><g><defs><clipPath id="clip-path-id-viewbox-item-6"><rect x="0.0" y="0.0" width="211.694" height="84.727"/></clipPath></defs><g transform="translate(1818.0 1156.0) rotate(0.0 117.0 47.0) scale(1.105369070450745 1.1094456312627616)"><g clip-path="url(#clip-path-id-viewbox-item-6)" transform="translate(-0.0 -0.0)"><g id="&#1057;&#1083;&#1086;&#1081;_27-i6" data-name="&#1057;&#1083;&#1086;&#1081; 27">
    <path d="M112.58,81.2C60.32,90.444,13.73,80.894,0,59.734c2-.9,3.99-1.81,5.99-2.7,39.14-17.55,78.18-33.26,116.16-46.89q2.85-1.02,5.7-2.03c1.4-.5,2.8-.99,4.19-1.47.01,0,.01-.01.02-.01,42.19-6.3,75.58-13.32,79.22,5.83C216.49,39.874,171.94,70.7,112.58,81.2Z" style="         fill: #9b3c82;       "/>
  </g>
</g></g></g><!--ITEM 7--><g><defs><clipPath id="clip-path-id-viewbox-item-7"><rect x="0.0" y="0.0" width="579.0" height="542.5"/></clipPath></defs><g transform="translate(370.0 1254.0) rotate(0.0 306.0 286.0) scale(1.0569948186528497 1.0543778801843318)"><g clip-path="url(#clip-path-id-viewbox-item-7)" transform="translate(-0.0 -0.0)"><defs>
    
    <clipPath id="clip-path-i7">
      <rect y="0.5" width="579" height="539" style="         fill: none;       "/>
    </clipPath>
  </defs>
  <g id="delivery_girl-i7" data-name="delivery girl">
    <g id="_2-2-i7" data-name="2">
      <g>
        <rect y="0.5" width="579" height="539" style="         fill: #ffcf2d;       "/>
        <path d="M579,2.06V539.5H0C539.1,521.5,579,2.06,579,2.06Z" style="         fill: #ffbd11;       "/>
        <g style="         clip-path: url(#clip-path-i7);       ">
          <rect x="238" y="0.5" width="104" height="542" style="         fill: #fff;       "/>
        </g>
        <rect width="579" height="6" style="         fill: #fff;       "/>
        <path d="M106.008,441.727a2.491,2.491,0,0,0,1.968-4.019L93.417,418.962,77.7,398.731a2.49,2.49,0,0,0-3.934,0L58.057,418.962,43.5,437.708a2.491,2.491,0,0,0,1.968,4.019h10.3a2.491,2.491,0,0,1,2.491,2.491v48.417a2.491,2.491,0,0,0,2.491,2.491h29.98a2.491,2.491,0,0,0,2.491-2.491V444.218a2.491,2.491,0,0,1,2.491-2.491Z" style="         fill: #5b2448;       "/>
        <path d="M184,430.836V401.693a2.188,2.188,0,0,0-2.183-2.193H136.525a2.188,2.188,0,0,0-2.183,2.193v29.143a24.94,24.94,0,0,0,22.249,24.815v35.271h-18.08a2.194,2.194,0,0,0,0,4.387h41.32a2.194,2.194,0,0,0,0-4.387H160.957V455.714A24.927,24.927,0,0,0,184,430.836Zm-45.293,0V403.887h40.928v26.949a20.464,20.464,0,1,1-40.928,0Z" style="         fill: #5b2448;       "/>
      </g>
    </g>
  </g>
</g></g></g><!--ITEM 8--><g><defs><clipPath id="clip-path-id-viewbox-item-8"><rect x="0.0" y="0.0" width="370.0" height="346.44"/></clipPath></defs><g transform="translate(588.0 888.0) rotate(0.0 197.0 184.0) scale(1.0648648648648649 1.0622329984990186)"><g clip-path="url(#clip-path-id-viewbox-item-8)" transform="translate(-0.0 -0.0)"><defs>
    
    <clipPath id="clip-path-i8">
      <rect y="2" width="370" height="344.44" style="         fill: none;       "/>
    </clipPath>
  </defs>
  <g id="delivery_girl-i8" data-name="delivery girl">
    <g id="_2-2-i8" data-name="2">
      <g>
        <rect y="2" width="370" height="344.44" style="         fill: #ffcf2d;       "/>
        <path d="M370,3V346.44H0C344.5,334.94,370,3,370,3Z" style="         fill: #ffbd11;       "/>
        <g style="         clip-path: url(#clip-path-i8);       ">
          <rect x="133" y="1.44" width="104" height="346" style="         fill: #fff;       "/>
        </g>
        <rect width="370" height="6" style="         fill: #ffd030;       "/>
        <path d="M335.008,269.667a2.491,2.491,0,0,0,1.968-4.019L322.417,246.9,306.7,226.671a2.49,2.49,0,0,0-3.934,0L287.057,246.9,272.5,265.648a2.491,2.491,0,0,0,1.968,4.019h10.3a2.491,2.491,0,0,1,2.491,2.491v48.417a2.491,2.491,0,0,0,2.491,2.491h29.98a2.491,2.491,0,0,0,2.491-2.491V272.158a2.491,2.491,0,0,1,2.491-2.491Z" style="         fill: #5b2448;       "/>
      </g>
    </g>
  </g>
</g></g></g><!--ITEM 9--><g><defs><clipPath id="clip-path-id-viewbox-item-9"><rect x="0.0" y="0.0" width="91.695" height="39.361"/></clipPath></defs><g transform="translate(2182.0 1104.0) rotate(0.0 49.0 21.0) scale(1.0687605649162988 1.0670460608216255)"><g clip-path="url(#clip-path-id-viewbox-item-9)" transform="translate(-0.0 -0.0)"><g id="&#1057;&#1083;&#1086;&#1081;_27-i9" data-name="&#1057;&#1083;&#1086;&#1081; 27">
    <path d="M90,28.8c-11.77,16.48-53,14-77.55-9.75A107.522,107.522,0,0,1,0,3.861Q3.285,3.44,6.5,3.07C22.32,1.26,37.17.23,50.91.03h.15Q54.735-.015,58.3.01q12.7.105,23.96,1.25c.24.02.48.05.71.08C89.11,9.3,94.57,22.4,90,28.8Z" style="         fill: #9b3c82;       "/>
  </g>
</g></g></g><!--ITEM 10--><g><defs><clipPath id="clip-path-id-viewbox-item-10"><rect x="0.0" y="0.0" width="67.0" height="67.0"/></clipPath></defs><g transform="translate(2226.0 1166.0) rotate(0.0 46.0 46.0) scale(1.373134328358209 1.373134328358209)"><g clip-path="url(#clip-path-id-viewbox-item-10)" transform="translate(-0.0 -0.0)"><g id="_1-i10" data-name="1">
    <circle cx="33.5" cy="33.5" r="33.5" style="         fill: #5b2448;       "/>
  </g>
</g></g></g><!--ITEM 11--><g><defs><clipPath id="clip-path-id-viewbox-item-11"><rect x="0.0" y="0.0" width="562.389" height="573.707"/></clipPath></defs><g transform="translate(1808.0 612.0) rotate(0.0 302.0 308.0) scale(1.0739897117475625 1.0737188146562617)"><g clip-path="url(#clip-path-id-viewbox-item-11)" transform="translate(-0.0 -0.0)"><defs>
    
    <clipPath id="clip-path-i11">
      <path d="M485.948,161.128c3-70-3.13-117.5-18-121s-29,20.12-35,57.06c-10-22.06-36-57.12-69-58.06-35-1-67,31-87,80-19.99,48.97-54.14,103.94-107.19,155.28a542.176,542.176,0,0,1-60.81,50.72C89.5,339.114,73.879,354,61.585,369.248c-8.38-4.345-33.018-19.438-43.737-51.263C13.277,304.416,2.816,300.042.517,320.468c-3.672,32.632,12.628,67.855,35.355,91.067C3,488.367,40.877,562.689,89.108,571.257c66.84,11.871,132.421-22.046,132.84-45.129.5-27.5-37.38-18.77-38.5-18.5,1.49-.58,57.46-16.93,54.5-48.5,0,0,69-22,105-57,0,0,20.2,51.42,48,76,23.43,20.72,49.23,17.06,52,6,3-12-17-36-16-68C429.918,321.038,481.618,262.118,485.948,161.128Z" style="         fill: none;       "/>
    </clipPath>
  </defs>
  <g id="dog-i11">
    <g>
      <path d="M317.307,89.922c18.99,2.711,27.6,12.571,38.972,7.041,16.894-8.217-1.025-53.773-41.37-80.472C280.483-6.29,237.935-8.309,211.926,28.6c-28.7,40.727-5.942,67.255,23.935,68.058C256.627,97.213,286.476,85.519,317.307,89.922Z" style="         fill: #5b2448;       "/>
      <path d="M469.522,249.01s31.926-22.382,59.926-8.382c24.413,12.206,42.928,44.709,27,54-12,7-25-9-42-4-12.8,3.764-25,28-52,51-20.5,17.458-33,22-58,24S469.522,249.01,469.522,249.01Z" style="         fill: #5b2448;       "/>
      <path d="M426.948,416.128c-1,32,19,56,16,68-2.77,11.06-28.57,14.72-52-6-27.8-24.58-48-76-48-76-36,35-105,57-105,57,2.96,31.57-53.01,47.92-54.5,48.5,1.12-.27,39-9,38.5,18.5-.419,23.083-66,57-132.84,45.129-56.85-10.1-99.33-111.549-28.51-200.79,12.44-15.679,28.38-30.98,48.35-45.339a542.176,542.176,0,0,0,60.81-50.72c53.05-51.34,87.2-106.31,107.19-155.28,20-49,52-81,87-80,33,.94,59,36,69,58.06,6-36.94,20.13-60.56,35-57.06s22.5,51.5,18,121C479.251,264.557,429.918,321.038,426.948,416.128Z" style="         fill: #ffcf2d;       "/>
      <path d="M467.3,146.805a17.322,17.322,0,0,1-3.216,6.53,23.461,23.461,0,0,1-5.221,4.9,24.436,24.436,0,0,1-20.726,3.84,24.045,24.045,0,0,1-6.643-2.914,20.475,20.475,0,0,1-8.768-11.142,2.24,2.24,0,0,1,4.049-1.824l.043.074a20.215,20.215,0,0,0,7.93,7.313A20.739,20.739,0,0,0,439.8,155.4a20.527,20.527,0,0,0,5.324.513,23.126,23.126,0,0,0,10.29-3.082,19.46,19.46,0,0,0,7.691-7.5l.043-.081a2.238,2.238,0,0,1,4.156,1.558Z" style="         fill: #9b3c82;       "/>
      <path d="M474.464,36.128c-.917,9.621-5.224,17.5-11.667,17.5s-10.655-7.889-11.667-17.5c-.9-8.526,2.693-17.5,11.667-17.5S475.361,26.705,474.464,36.128Z" style="         fill: #5b2448;       "/>
      <path d="M311.448,96.628c23-9,30-25,46-22,23.773,4.457,17.018,67.122-24,114-35,40-87.1,63.1-132,20-50-48-22-88,5-96C229.466,105.808,292.25,104.14,311.448,96.628Z" style="         fill: #5b2448;       "/>
      <ellipse cx="410.805" cy="99.128" rx="9.643" ry="13.5" style="         fill: #5b2448;       "/>
      <path d="M64.448,370.628s-33.58-13.985-46.6-52.644c-4.571-13.568-15.032-17.942-17.33,2.484-4.07,36.16,16.381,75.507,42.93,98.16Z" style="         fill: #ffcf2d;       "/>
      <path d="M157.538,367.788c-29.11,32.08-68,44.21-86.86,27.09-6.47-5.86-9.75-14.411-10.08-24.411,12.44-15.679,28.38-30.98,48.35-45.339a542.176,542.176,0,0,0,60.81-50.72,27.835,27.835,0,0,1,6.31,4.3C194.938,295.828,186.638,335.708,157.538,367.788Z" style="         fill: #5b2448;       "/>
      <g style="         clip-path: url(#clip-path-i11);       ">
        <path d="M33.859,413.03a2.5,2.5,0,0,1-2.307-3.463c8.116-19.466,25.654-42.949,26.4-43.939a2.5,2.5,0,1,1,4,3c-.177.237-17.908,23.98-25.781,42.863A2.5,2.5,0,0,1,33.859,413.03Z" style="         fill: #9b3c82;       "/>
        <path d="M340.948,406.629a2.5,2.5,0,0,1-2.361-1.68c-8.095-23.273-5.247-49.024-5.122-50.108a2.5,2.5,0,0,1,4.967.573c-.03.254-2.832,25.725,4.878,47.892a2.5,2.5,0,0,1-2.362,3.323Z" style="         fill: #9b3c82;       "/>
        <path d="M240.945,463.628a2.5,2.5,0,0,1-2.488-2.288c-1.579-18.558-10.859-32.713-27.583-42.074a76.721,76.721,0,0,0-25.22-8.656,2.5,2.5,0,0,1,.586-4.965,80.343,80.343,0,0,1,26.924,9.173c18.1,10.073,28.566,26.013,30.276,46.1a2.5,2.5,0,0,1-2.28,2.7C241.088,463.625,241.017,463.628,240.945,463.628Z" style="         fill: #9b3c82;       "/>
        <path d="M141.948,536.628a2.5,2.5,0,0,1-1.8-4.237c1.173-1.216,29.294-29.763,77.8-29.763a2.5,2.5,0,1,1,0,5c-46.4,0-73.928,27.954-74.2,28.236A2.494,2.494,0,0,1,141.948,536.628Z" style="         fill: #9b3c82;       "/>
      </g>
    </g>
  </g>
</g></g></g><!--ITEM 12--><g><defs><clipPath id="clip-path-id-viewbox-item-12"><rect x="0.0" y="0.0" width="522.757" height="318.002"/></clipPath></defs><g transform="translate(364.0 2188.0) rotate(0.0 277.0 169.0) scale(1.0597658185351895 1.0628863969408997)"><g clip-path="url(#clip-path-id-viewbox-item-12)" transform="translate(-0.0 -0.0)"><g id="downloading-i12">
    <g id="_6-i12" data-name="6">
      <g>
        <circle cx="85.566" cy="60.024" r="60.024" style="         fill: #90c6f5;       "/>
        <path d="M522.757,316.247s-54.649-22.4-106.61-84.213C372.378,179.964,292.515,45.69,211.886,73.462c-49.572,17.075-38.523,58.233-70.775,80.63C102.48,180.919,22.385,137,2.249,208.741c-14.334,51.065,41.7,96.295,115.569,104.818C187.7,321.622,301.474,316.247,522.757,316.247Z" style="         fill: #90c6f5;       "/>
      </g>
    </g>
  </g>
</g></g></g></svg>