<?xml version="1.0" encoding="UTF-8"?>
<svg xmlns="http://www.w3.org/2000/svg" xmlns:xlink="http://www.w3.org/1999/xlink" width="50pt" height="50pt" viewBox="0 0 50 50" version="1.1">
<g id="surface1689">
<path style="fill:none;stroke-width:2;stroke-linecap:round;stroke-linejoin:miter;stroke:rgb(96.078431%,30.588235%,26.666667%);stroke-opacity:1;stroke-miterlimit:10;" d="M 26 45 L 26 29 L 23 29 L 23 24 L 26 24 L 26 21 C 26 17 28 14 32 14 C 34.902344 14 37 15 37 15 L 37 19 L 35 19 C 32.855469 19 32 19.503906 32 21 L 32 24 L 37 24 L 36 29 L 32 29 L 32 45 "/>
<path style="fill:none;stroke-width:2;stroke-linecap:round;stroke-linejoin:round;stroke:rgb(96.078431%,30.588235%,26.666667%);stroke-opacity:1;stroke-miterlimit:10;" d="M 9 45 L 41 45 C 43.210938 45 45 43.210938 45 41 L 45 9 C 45 6.789062 43.210938 5 41 5 L 9 5 C 6.789062 5 5 6.789062 5 9 L 5 41 C 5 43.210938 6.789062 45 9 45 Z M 9 45 "/>
</g>
</svg>
