<?xml version="1.0" encoding="UTF-8"?>
<svg xmlns="http://www.w3.org/2000/svg" xmlns:xlink="http://www.w3.org/1999/xlink" width="50pt" height="50pt" viewBox="0 0 50 50" version="1.1">
<g id="surface4583">
<path style="fill:none;stroke-width:2;stroke-linecap:round;stroke-linejoin:round;stroke:rgb(96.078431%,30.588235%,26.666667%);stroke-opacity:1;stroke-miterlimit:10;" d="M 37 4 L 13 4 C 8.027344 4 4 8.027344 4 13 L 4 37 C 4 41.972656 8.027344 46 13 46 L 37 46 C 41.972656 46 46 41.972656 46 37 L 46 13 C 46 8.027344 41.972656 4 37 4 Z M 37 4 "/>
<path style="fill:none;stroke-width:2;stroke-linecap:round;stroke-linejoin:round;stroke:rgb(96.078431%,30.588235%,26.666667%);stroke-opacity:1;stroke-miterlimit:10;" d="M 39 17.605469 C 38.007812 18.046875 36.9375 18.34375 35.816406 18.480469 C 36.960938 17.789062 37.839844 16.703125 38.253906 15.40625 C 37.183594 16.042969 35.996094 16.503906 34.734375 16.753906 C 33.726562 15.671875 32.285156 15 30.695312 15 C 27.632812 15 25.152344 17.488281 25.152344 20.554688 C 25.152344 20.988281 25.203125 21.410156 25.300781 21.820312 C 20.695312 21.585938 16.613281 19.375 13.882812 16.015625 C 13.402344 16.839844 13.132812 17.792969 13.132812 18.808594 C 13.132812 20.734375 14.109375 22.433594 15.597656 23.433594 C 14.6875 23.402344 13.835938 23.152344 13.085938 22.734375 C 13.085938 22.761719 13.085938 22.78125 13.085938 22.804688 C 13.085938 25.496094 14.996094 27.738281 17.527344 28.253906 C 17.066406 28.378906 16.574219 28.449219 16.070312 28.449219 C 15.710938 28.449219 15.363281 28.414062 15.027344 28.347656 C 15.734375 30.554688 17.777344 32.160156 20.199219 32.203125 C 18.308594 33.695312 15.917969 34.582031 13.320312 34.582031 C 12.875 34.582031 12.433594 34.554688 12 34.503906 C 14.449219 36.082031 17.363281 37 20.492188 37 C 30.679688 37 36.253906 28.535156 36.253906 21.199219 C 36.253906 20.957031 36.246094 20.71875 36.238281 20.480469 C 37.320312 19.695312 38.257812 18.71875 39 17.605469 Z M 39 17.605469 "/>
</g>
</svg>
