<?xml version="1.0" encoding="UTF-8"?>
<svg xmlns="http://www.w3.org/2000/svg" xmlns:xlink="http://www.w3.org/1999/xlink" width="50pt" height="50pt" viewBox="0 0 50 50" version="1.1">
<g id="surface6058">
<path style=" stroke:none;fill-rule:nonzero;fill:rgb(100%,31.568627%,17.254902%);fill-opacity:1;" d="M 37 3 L 13 3 C 7.484375 3 3 7.488281 3 13 L 3 36.996094 C 3 42.511719 7.484375 47 13 47 L 37 47 C 42.515625 47 47 42.511719 47 37 L 47 13 C 47 7.484375 42.515625 3 37 3 Z M 36.238281 20.480469 C 36.246094 20.71875 36.253906 20.957031 36.253906 21.199219 C 36.253906 28.535156 30.679688 37 20.492188 37 C 17.363281 37 14.449219 36.082031 12 34.503906 C 12.433594 34.554688 12.871094 34.582031 13.320312 34.582031 C 15.917969 34.582031 18.304688 33.695312 20.199219 32.203125 C 17.777344 32.160156 15.730469 30.550781 15.023438 28.347656 C 15.363281 28.414062 15.710938 28.449219 16.070312 28.449219 C 16.574219 28.449219 17.0625 28.382812 17.527344 28.253906 C 14.996094 27.738281 13.085938 25.496094 13.085938 22.804688 C 13.085938 22.78125 13.085938 22.757812 13.085938 22.734375 C 13.832031 23.152344 14.6875 23.402344 15.59375 23.433594 C 14.105469 22.433594 13.132812 20.734375 13.132812 18.808594 C 13.132812 17.789062 13.402344 16.839844 13.878906 16.015625 C 16.613281 19.375 20.695312 21.585938 25.296875 21.820312 C 25.203125 21.410156 25.152344 20.988281 25.152344 20.554688 C 25.152344 17.488281 27.632812 15 30.691406 15 C 32.285156 15 33.726562 15.675781 34.734375 16.753906 C 35.996094 16.503906 37.183594 16.042969 38.253906 15.40625 C 37.839844 16.703125 36.960938 17.789062 35.816406 18.480469 C 36.9375 18.34375 38.003906 18.046875 39 17.605469 C 38.257812 18.71875 37.320312 19.695312 36.238281 20.480469 Z M 36.238281 20.480469 "/>
</g>
</svg>
