<?xml version="1.0" encoding="UTF-8"?>
<svg xmlns="http://www.w3.org/2000/svg" xmlns:xlink="http://www.w3.org/1999/xlink" width="50pt" height="50pt" viewBox="0 0 50 50" version="1.1">
<g id="surface1327">
<path style=" stroke:none;fill-rule:nonzero;fill:rgb(100%,100%,100%);fill-opacity:1;" d="M 6.640625 42.96875 C 6.640625 42.304688 6.132812 41.796875 5.46875 41.796875 L 1.5625 41.796875 C 0.898438 41.796875 0.390625 42.304688 0.390625 42.96875 C 0.390625 43.632812 0.898438 44.140625 1.5625 44.140625 L 5.46875 44.140625 C 6.132812 44.140625 6.640625 43.632812 6.640625 42.96875 Z M 6.640625 42.96875 "/>
<path style=" stroke:none;fill-rule:nonzero;fill:rgb(100%,100%,100%);fill-opacity:1;" d="M 30 12.304688 C 30.117188 11.679688 29.6875 11.054688 29.0625 10.9375 C 28.4375 10.820312 27.8125 11.25 27.695312 11.875 L 25.78125 22.8125 C 25.546875 24.21875 25.859375 25.546875 26.71875 26.5625 C 27.539062 27.539062 28.789062 28.085938 30.15625 28.085938 L 36.015625 28.085938 C 36.679688 28.085938 37.1875 27.578125 37.1875 26.914062 C 37.1875 26.25 36.679688 25.742188 36.015625 25.742188 L 30.15625 25.742188 C 29.492188 25.742188 28.90625 25.507812 28.515625 25.039062 C 28.125 24.570312 27.96875 23.90625 28.085938 23.203125 Z M 30 12.304688 "/>
<path style=" stroke:none;fill-rule:nonzero;fill:rgb(100%,100%,100%);fill-opacity:1;" d="M 47.929688 41.210938 L 49.101562 34.609375 C 49.570312 31.914062 48.515625 29.492188 46.328125 28.203125 L 42.773438 26.132812 L 33.007812 4.726562 C 31.796875 2.070312 29.101562 0.390625 25.976562 0.390625 L 1.5625 0.390625 C 0.898438 0.390625 0.390625 0.898438 0.390625 1.5625 C 0.390625 2.226562 0.898438 2.734375 1.5625 2.734375 L 25.976562 2.734375 C 28.203125 2.734375 30.039062 3.828125 30.859375 5.703125 L 40.742188 27.460938 C 40.859375 27.695312 41.015625 27.851562 41.210938 28.007812 L 45.117188 30.273438 C 46.445312 31.054688 47.070312 32.539062 46.757812 34.257812 L 45.585938 40.859375 C 45.507812 41.367188 44.960938 41.835938 44.453125 41.835938 L 39.84375 41.835938 C 39.804688 40.546875 39.375 39.335938 38.554688 38.359375 C 37.5 37.03125 35.9375 36.328125 34.140625 36.328125 C 30.859375 36.328125 27.8125 38.671875 26.796875 41.796875 L 14.453125 41.796875 C 13.789062 41.796875 13.28125 42.304688 13.28125 42.96875 C 13.28125 43.632812 13.789062 44.140625 14.453125 44.140625 L 26.445312 44.140625 C 26.484375 45.429688 26.914062 46.640625 27.734375 47.617188 C 28.828125 48.90625 30.390625 49.609375 32.1875 49.609375 C 35.46875 49.609375 38.515625 47.265625 39.53125 44.140625 L 44.492188 44.140625 C 46.132812 44.140625 47.65625 42.851562 47.929688 41.210938 Z M 37.460938 42.773438 C 37.03125 45.195312 34.609375 47.265625 32.1875 47.265625 C 31.09375 47.265625 30.15625 46.875 29.53125 46.09375 C 28.90625 45.3125 28.632812 44.296875 28.828125 43.164062 C 29.257812 40.742188 31.679688 38.671875 34.101562 38.671875 C 35.195312 38.671875 36.132812 39.0625 36.757812 39.84375 C 37.421875 40.585938 37.65625 41.640625 37.460938 42.773438 Z M 37.460938 42.773438 "/>
<path style=" stroke:none;fill-rule:nonzero;fill:rgb(100%,100%,100%);fill-opacity:1;" d="M 21.796875 11.328125 C 21.796875 10.664062 21.289062 10.15625 20.625 10.15625 L 8.59375 10.15625 C 7.929688 10.15625 7.421875 10.664062 7.421875 11.328125 C 7.421875 11.992188 7.929688 12.5 8.59375 12.5 L 20.625 12.5 C 21.25 12.5 21.796875 11.992188 21.796875 11.328125 Z M 21.796875 11.328125 "/>
<path style=" stroke:none;fill-rule:nonzero;fill:rgb(100%,100%,100%);fill-opacity:1;" d="M 19.53125 19.921875 L 14.453125 19.921875 C 13.789062 19.921875 13.28125 20.429688 13.28125 21.09375 C 13.28125 21.757812 13.789062 22.265625 14.453125 22.265625 L 19.53125 22.265625 C 20.195312 22.265625 20.703125 21.757812 20.703125 21.09375 C 20.703125 20.429688 20.195312 19.921875 19.53125 19.921875 Z M 19.53125 19.921875 "/>
</g>
</svg>
