<?xml version="1.0" encoding="UTF-8"?>
<svg xmlns="http://www.w3.org/2000/svg" xmlns:xlink="http://www.w3.org/1999/xlink" width="50pt" height="50pt" viewBox="0 0 50 50" version="1.1">
<g id="surface14148">
<path style=" stroke:none;fill-rule:nonzero;fill:rgb(100%,81.568627%,17.254902%);fill-opacity:1;" d="M 26.171875 7.132812 L 26.171875 1.664062 C 26.171875 1.015625 25.648438 0.492188 25 0.492188 C 24.351562 0.492188 23.828125 1.015625 23.828125 1.664062 L 23.828125 7.132812 C 23.828125 7.78125 24.351562 8.304688 25 8.304688 C 25.648438 8.304688 26.171875 7.78125 26.171875 7.132812 Z M 26.171875 7.132812 "/>
<path style=" stroke:none;fill-rule:nonzero;fill:rgb(100%,81.568627%,17.254902%);fill-opacity:1;" d="M 16.449219 10.359375 C 16.65625 10.359375 16.863281 10.304688 17.050781 10.191406 C 17.605469 9.859375 17.785156 9.136719 17.453125 8.582031 L 15.039062 4.566406 C 14.707031 4.011719 13.984375 3.832031 13.429688 4.164062 C 12.875 4.496094 12.695312 5.21875 13.027344 5.773438 L 15.441406 9.792969 C 15.664062 10.160156 16.050781 10.359375 16.449219 10.359375 Z M 16.449219 10.359375 "/>
<path style=" stroke:none;fill-rule:nonzero;fill:rgb(100%,81.568627%,17.254902%);fill-opacity:1;" d="M 33.550781 10.359375 C 33.949219 10.359375 34.335938 10.15625 34.554688 9.789062 L 36.96875 5.769531 C 37.300781 5.214844 37.121094 4.496094 36.566406 4.160156 C 36.011719 3.828125 35.292969 4.007812 34.957031 4.5625 L 32.542969 8.582031 C 32.210938 9.136719 32.390625 9.855469 32.945312 10.191406 C 33.136719 10.308594 33.34375 10.359375 33.550781 10.359375 Z M 33.550781 10.359375 "/>
<path style=" stroke:none;fill-rule:nonzero;fill:rgb(100%,81.568627%,17.254902%);fill-opacity:1;" d="M 48.4375 32.8125 L 44.828125 32.8125 C 44.515625 32.8125 44.214844 32.9375 43.996094 33.15625 C 43.996094 33.15625 30.464844 46.6875 30.144531 47.003906 C 29.382812 47.765625 28.144531 47.765625 27.386719 47.003906 C 26.625 46.242188 26.625 45.007812 27.386719 44.246094 L 29.132812 42.496094 L 29.136719 42.492188 C 29.59375 42.035156 29.59375 41.292969 29.136719 40.835938 C 28.679688 40.378906 27.9375 40.378906 27.480469 40.835938 L 24.085938 44.230469 C 23.710938 44.605469 23.214844 44.808594 22.6875 44.808594 C 22.160156 44.808594 21.664062 44.601562 21.289062 44.230469 C 20.535156 43.476562 20.535156 42.253906 21.304688 41.484375 L 23.609375 39.179688 C 24.066406 38.722656 24.066406 37.980469 23.609375 37.523438 C 23.152344 37.066406 22.410156 37.066406 21.953125 37.523438 L 18.542969 40.933594 C 18.175781 41.300781 17.683594 41.503906 17.160156 41.503906 C 16.640625 41.503906 16.148438 41.300781 15.777344 40.933594 C 15.015625 40.171875 15.015625 38.933594 15.777344 38.171875 L 16.605469 37.34375 C 16.605469 37.34375 16.609375 37.339844 16.609375 37.339844 L 19.738281 34.210938 C 20.195312 33.753906 20.195312 33.011719 19.738281 32.554688 C 19.28125 32.097656 18.539062 32.097656 18.082031 32.554688 L 15.226562 35.410156 C 14.859375 35.777344 14.371094 35.980469 13.847656 35.980469 C 13.847656 35.980469 13.847656 35.980469 13.84375 35.980469 C 13.320312 35.980469 12.828125 35.773438 12.453125 35.402344 C 12.085938 35.035156 11.882812 34.546875 11.882812 34.03125 C 11.882812 33.511719 12.085938 33.027344 12.453125 32.660156 L 18.066406 27.046875 C 18.523438 26.589844 18.523438 25.847656 18.066406 25.390625 C 17.609375 24.933594 16.867188 24.933594 16.410156 25.390625 L 10.804688 30.992188 C 9.996094 31.800781 9.550781 32.878906 9.550781 34.023438 C 9.550781 35.167969 9.996094 36.242188 10.804688 37.054688 C 11.433594 37.683594 12.214844 38.09375 13.066406 38.25 C 12.933594 38.664062 12.867188 39.101562 12.867188 39.550781 C 12.867188 40.699219 13.3125 41.777344 14.125 42.589844 C 14.9375 43.402344 16.015625 43.847656 17.164062 43.847656 C 17.609375 43.847656 18.042969 43.78125 18.457031 43.652344 C 18.609375 44.472656 19 45.257812 19.632812 45.890625 C 20.449219 46.707031 21.535156 47.15625 22.6875 47.15625 C 23.363281 47.15625 24.019531 47 24.605469 46.707031 C 24.789062 47.425781 25.164062 48.105469 25.726562 48.667969 C 26.5625 49.503906 27.664062 49.921875 28.761719 49.921875 C 29.859375 49.921875 30.960938 49.503906 31.796875 48.667969 C 32.082031 48.382812 43.203125 37.265625 45.304688 35.160156 L 48.4375 35.160156 C 49.085938 35.160156 49.609375 34.636719 49.609375 33.988281 C 49.609375 33.339844 49.085938 32.8125 48.4375 32.8125 Z M 48.4375 32.8125 "/>
<path style=" stroke:none;fill-rule:nonzero;fill:rgb(100%,81.568627%,17.254902%);fill-opacity:1;" d="M 48.4375 17.1875 L 40.101562 17.1875 C 39.453125 17.1875 38.929688 17.710938 38.929688 18.359375 C 38.929688 19.007812 39.453125 19.53125 40.101562 19.53125 L 48.4375 19.53125 C 49.085938 19.53125 49.609375 19.007812 49.609375 18.359375 C 49.609375 17.710938 49.085938 17.1875 48.4375 17.1875 Z M 48.4375 17.1875 "/>
<path style=" stroke:none;fill-rule:nonzero;fill:rgb(100%,81.568627%,17.254902%);fill-opacity:1;" d="M 0.390625 18.359375 C 0.390625 19.007812 0.914062 19.53125 1.5625 19.53125 L 16.257812 19.53125 C 16.570312 19.53125 16.867188 19.40625 17.085938 19.1875 L 20.867188 15.40625 C 23.105469 13.167969 26.785156 13.128906 29.070312 15.324219 L 33.820312 19.882812 C 34.597656 20.628906 34.621094 21.867188 33.875 22.644531 C 33.515625 23.019531 33.027344 23.234375 32.507812 23.246094 C 32.492188 23.246094 32.480469 23.246094 32.46875 23.246094 C 31.960938 23.246094 31.484375 23.054688 31.117188 22.703125 L 26.914062 18.667969 C 26.449219 18.21875 25.707031 18.234375 25.257812 18.703125 C 24.808594 19.171875 24.824219 19.910156 25.292969 20.359375 L 29.492188 24.390625 C 30.296875 25.164062 31.351562 25.585938 32.464844 25.585938 C 32.496094 25.585938 32.523438 25.585938 32.554688 25.585938 C 33.703125 25.5625 34.773438 25.09375 35.566406 24.265625 C 37.207031 22.554688 37.152344 19.832031 35.441406 18.191406 L 30.691406 13.628906 C 27.496094 10.558594 22.34375 10.613281 19.210938 13.746094 L 15.769531 17.1875 L 1.5625 17.1875 C 0.914062 17.1875 0.390625 17.710938 0.390625 18.359375 Z M 0.390625 18.359375 "/>
<path style=" stroke:none;fill-rule:nonzero;fill:rgb(100%,81.568627%,17.254902%);fill-opacity:1;" d="M 1.546875 35.15625 L 5.453125 35.15625 C 6.101562 35.15625 6.625 34.632812 6.625 33.984375 C 6.625 33.335938 6.101562 32.8125 5.453125 32.8125 L 1.546875 32.8125 C 0.898438 32.8125 0.375 33.335938 0.375 33.984375 C 0.375 34.632812 0.898438 35.15625 1.546875 35.15625 Z M 1.546875 35.15625 "/>
</g>
</svg>
