<?xml version="1.0" encoding="UTF-8"?>
<svg xmlns="http://www.w3.org/2000/svg" xmlns:xlink="http://www.w3.org/1999/xlink" width="50pt" height="50pt" viewBox="0 0 50 50" version="1.1">
<g id="surface4367">
<path style="fill:none;stroke-width:2;stroke-linecap:round;stroke-linejoin:round;stroke:rgb(100%,81.568627%,17.254902%);stroke-opacity:1;stroke-miterlimit:10;" d="M 19.003906 10.269531 L 13 13 L 1 7 L 1 43 L 13 49 L 25 43 L 38 49 L 49 43 L 49 7 L 38 13 L 36.683594 12.84375 "/>
<path style="fill:none;stroke-width:2;stroke-linecap:round;stroke-linejoin:round;stroke:rgb(100%,81.568627%,17.254902%);stroke-opacity:1;stroke-miterlimit:10;" d="M 37 10 C 37 18.160156 28 29 28 29 C 28 29 19 18.355469 19 10 C 19 5.027344 23.027344 1 28 1 C 32.972656 1 37 5.027344 37 10 Z M 37 10 "/>
<path style="fill:none;stroke-width:2;stroke-linecap:round;stroke-linejoin:round;stroke:rgb(100%,81.568627%,17.254902%);stroke-opacity:1;stroke-miterlimit:10;" d="M 28 7 C 25.789062 7 24 8.789062 24 11 C 24 13.210938 25.789062 15 28 15 C 30.210938 15 32 13.210938 32 11 C 32 8.789062 30.210938 7 28 7 Z M 28 7 "/>
</g>
</svg>
