<?xml version="1.0" encoding="UTF-8"?>
<svg xmlns="http://www.w3.org/2000/svg" xmlns:xlink="http://www.w3.org/1999/xlink" width="50pt" height="50pt" viewBox="0 0 50 50" version="1.1">
<g id="surface5081">
<path style="fill:none;stroke-width:2;stroke-linecap:round;stroke-linejoin:round;stroke:rgb(100%,100%,100%);stroke-opacity:1;stroke-miterlimit:4;" d="M 19 10 L 13.199219 13.101562 L 3.101562 7 L 3.101562 43 L 14 48.601562 L 24.5 43 L 37.800781 49 L 47 43 L 47 7 L 37.800781 13 L 37.199219 12.699219 "/>
<path style="fill:none;stroke-width:2;stroke-linecap:round;stroke-linejoin:round;stroke:rgb(100%,100%,100%);stroke-opacity:1;stroke-miterlimit:4;" d="M 37 12 C 37 20.199219 28 31 28 31 C 28 31 19 20.398438 19 12 C 19 7 23 3 28 3 C 33 3 37 7 37 12 Z M 37 12 "/>
<path style="fill:none;stroke-width:2;stroke-linecap:round;stroke-linejoin:round;stroke:rgb(100%,100%,100%);stroke-opacity:1;stroke-miterlimit:4;" d="M 28 9 C 25.800781 9 24 10.800781 24 13 C 24 15.199219 25.800781 17 28 17 C 30.199219 17 32 15.199219 32 13 C 32 10.800781 30.199219 9 28 9 Z M 28 9 "/>
</g>
</svg>
