<?xml version="1.0" encoding="UTF-8"?>
<svg xmlns="http://www.w3.org/2000/svg" xmlns:xlink="http://www.w3.org/1999/xlink" width="50pt" height="50pt" viewBox="0 0 50 50" version="1.1">
<g id="surface5544">
<path style=" stroke:none;fill-rule:nonzero;fill:rgb(100%,81.568627%,17.254902%);fill-opacity:1;" d="M 20.703125 26.953125 C 20.039062 26.953125 19.53125 27.460938 19.53125 28.125 L 19.53125 42.578125 C 19.53125 43.242188 20.039062 43.75 20.703125 43.75 L 42.578125 43.75 C 43.242188 43.75 43.75 43.242188 43.75 42.578125 L 43.75 28.125 C 43.75 27.460938 43.242188 26.953125 42.578125 26.953125 Z M 41.40625 41.40625 L 21.875 41.40625 L 21.875 29.296875 L 41.40625 29.296875 Z M 41.40625 41.40625 "/>
<path style=" stroke:none;fill-rule:nonzero;fill:rgb(100%,81.568627%,17.254902%);fill-opacity:1;" d="M 48.4375 4.296875 C 47.773438 4.296875 47.265625 4.804688 47.265625 5.46875 L 47.265625 9.375 C 47.265625 10.039062 47.773438 10.546875 48.4375 10.546875 C 49.101562 10.546875 49.609375 10.039062 49.609375 9.375 L 49.609375 5.46875 C 49.609375 4.804688 49.101562 4.296875 48.4375 4.296875 Z M 48.4375 4.296875 "/>
<path style=" stroke:none;fill-rule:nonzero;fill:rgb(100%,81.568627%,17.254902%);fill-opacity:1;" d="M 48.4375 16.015625 C 47.773438 16.015625 47.265625 16.523438 47.265625 17.1875 L 47.265625 47.265625 L 16.40625 47.265625 L 16.40625 28.125 C 16.40625 27.460938 15.898438 26.953125 15.234375 26.953125 L 5.46875 26.953125 C 4.804688 26.953125 4.296875 27.460938 4.296875 28.125 L 4.296875 47.265625 L 1.5625 47.265625 C 0.898438 47.265625 0.390625 47.773438 0.390625 48.4375 C 0.390625 49.101562 0.898438 49.609375 1.5625 49.609375 L 5.46875 49.609375 C 6.132812 49.609375 6.640625 49.101562 6.640625 48.4375 L 6.640625 29.296875 L 14.0625 29.296875 L 14.0625 48.4375 C 14.0625 49.101562 14.570312 49.609375 15.234375 49.609375 L 48.4375 49.609375 C 49.101562 49.609375 49.609375 49.101562 49.609375 48.4375 L 49.609375 17.1875 C 49.609375 16.523438 49.101562 16.015625 48.4375 16.015625 Z M 48.4375 16.015625 "/>
<path style=" stroke:none;fill-rule:nonzero;fill:rgb(100%,81.568627%,17.254902%);fill-opacity:1;" d="M 8.398438 22.265625 C 10.390625 22.265625 12.1875 21.289062 13.28125 19.765625 C 14.375 21.289062 16.171875 22.265625 18.164062 22.265625 C 20.15625 22.265625 21.953125 21.289062 23.046875 19.765625 C 24.140625 21.289062 25.9375 22.265625 27.929688 22.265625 C 29.921875 22.265625 31.71875 21.289062 32.8125 19.765625 C 33.90625 21.289062 35.703125 22.265625 37.695312 22.265625 C 41.015625 22.265625 43.75 19.53125 43.75 16.210938 L 43.75 5.46875 C 43.75 2.65625 41.484375 0.390625 38.671875 0.390625 L 7.421875 0.390625 C 4.609375 0.390625 2.34375 2.65625 2.34375 5.46875 L 2.34375 16.210938 C 2.34375 19.53125 5.078125 22.265625 8.398438 22.265625 Z M 33.984375 2.734375 L 38.671875 2.734375 C 40.195312 2.734375 41.40625 3.945312 41.40625 5.46875 L 41.40625 16.210938 C 41.40625 18.242188 39.726562 19.921875 37.695312 19.921875 C 35.664062 19.921875 33.984375 18.242188 33.984375 16.210938 Z M 24.21875 2.734375 L 31.640625 2.734375 L 31.640625 16.210938 C 31.640625 18.242188 29.960938 19.921875 27.929688 19.921875 C 25.898438 19.921875 24.21875 18.242188 24.21875 16.210938 Z M 14.453125 2.734375 L 21.875 2.734375 L 21.875 16.210938 C 21.875 18.242188 20.195312 19.921875 18.164062 19.921875 C 16.132812 19.921875 14.453125 18.242188 14.453125 16.210938 Z M 4.6875 5.46875 C 4.6875 3.945312 5.898438 2.734375 7.421875 2.734375 L 12.109375 2.734375 L 12.109375 16.210938 C 12.109375 18.242188 10.429688 19.921875 8.398438 19.921875 C 6.367188 19.921875 4.6875 18.242188 4.6875 16.210938 Z M 4.6875 5.46875 "/>
</g>
</svg>
