<?xml version="1.0" encoding="UTF-8"?>
<svg xmlns="http://www.w3.org/2000/svg" xmlns:xlink="http://www.w3.org/1999/xlink" width="50pt" height="50pt" viewBox="0 0 50 50" version="1.1">
<g id="surface2354">
<path style="fill:none;stroke-width:2;stroke-linecap:round;stroke-linejoin:miter;stroke:rgb(100%,100%,100%);stroke-opacity:1;stroke-miterlimit:10;" d="M 8 14 L 4 49 L 46 49 L 42 14 Z M 8 14 "/>
<path style="fill:none;stroke-width:2;stroke-linecap:round;stroke-linejoin:miter;stroke:rgb(100%,100%,100%);stroke-opacity:1;stroke-miterlimit:10;" d="M 34 19 C 34 17.800781 34 12.199219 34 11 C 34 6 30 2 25 2 C 20 2 16 6 16 11 C 16 12.199219 16 17.800781 16 19 "/>
<path style=" stroke:none;fill-rule:nonzero;fill:rgb(100%,100%,100%);fill-opacity:1;" d="M 34 17 C 32.894531 17 32 17.894531 32 19 C 32 20.105469 32.894531 21 34 21 C 35.105469 21 36 20.105469 36 19 C 36 17.894531 35.105469 17 34 17 Z M 16 17 C 14.894531 17 14 17.894531 14 19 C 14 20.105469 14.894531 21 16 21 C 17.105469 21 18 20.105469 18 19 C 18 17.894531 17.105469 17 16 17 Z M 16 17 "/>
</g>
</svg>
